<?xml version="1.0" encoding="utf-8"?>
<!-- Generator: Adobe Illustrator 22.0.1, SVG Export Plug-In . SVG Version: 6.00 Build 0)  -->
<svg version="1.1" id="圖層_1" xmlns="http://www.w3.org/2000/svg" xmlns:xlink="http://www.w3.org/1999/xlink" x="0px" y="0px"
	 viewBox="0 0 413.4 290.3" style="enable-background:new 0 0 413.4 290.3;" xml:space="preserve">
<style type="text/css">
	.st0{fill:#FFFFFF;}
</style>
<g>
	<g>
		<path class="st0" d="M324.7,98.2l44.9-0.8c4.3-0.1,7.1,4.5,5,8.3l-50.1,90.6c-1,1.8-2.9,2.9-4.9,2.9l-15.8-0.2
			c-4.2,0-6.9-4.6-4.8-8.3l32.8-59.2c2.1-3.8-0.7-8.4-5-8.3l-9.6,0.2c-4.3,0.1-7.1-4.5-5-8.3l7.8-14
			C320.9,99.4,322.7,98.3,324.7,98.2z"/>
		<path class="st0" d="M206.3,98.2l44.9-0.8c4.3-0.1,7.1,4.5,5,8.3l-50.1,90.6c-1,1.8-2.9,2.9-4.9,2.9l-15.8-0.2
			c-4.2,0-6.9-4.6-4.8-8.3l32.8-59.2c2.1-3.8-0.7-8.4-5-8.3l-9.6,0.2c-4.3,0.1-7.1-4.5-5-8.3l7.8-14
			C202.5,99.4,204.3,98.3,206.3,98.2z"/>
		<path class="st0" d="M253.8,135.7l39.6-0.7c3.7-0.1,6.1,3.9,4.3,7.2L266.8,198c-0.8,1.5-2.4,2.5-4.1,2.5l-13.8,0.3
			c-3.7,0.1-6.1-3.9-4.3-7.2l16.1-29.1c1.8-3.2-0.6-7.2-4.3-7.2l-8.6,0.2c-3.6,0.1-6-3.8-4.4-7l6.3-12.1
			C250.4,136.8,252,135.8,253.8,135.7z"/>
	</g>
	<g>
		<path class="st0" d="M56.9,123.6l-1.6,3.5c-0.8,1.7-3,3.1-5.1,3.1h-6.6c-2,0-3-1.4-2.3-3.1L71.8,59c0.8-1.7,3-3.1,5.1-3.1h28.7
			c2,0,3,1.4,2.3,3.1l-26,58.3c-0.8,1.7-3,3.1-5.1,3.1H62C59.9,120.4,57.7,121.8,56.9,123.6z M80.3,71L65,105.2
			c-0.8,1.7,0.2,3.1,2.3,3.1h0.9c2,0,4.3-1.4,5.1-3.1L88.6,71c0.8-1.7-0.2-3.1-2.3-3.1h-0.9C83.4,67.8,81.1,69.2,80.3,71z
			 M151.4,140.1l-1.8,4c-0.8,1.7-3,3.1-5.1,3.1H84.4c-2,0-3-1.4-2.3-3.1l1.8-4c0.8-1.7,3-3.1,5.1-3.1h19.8c2,0,4.3-1.4,5.1-3.1
			l0.9-2c0.8-1.7-0.2-3.1-2.3-3.1H99.6c-2,0-3-1.4-2.3-3.1l1.6-3.5c0.8-1.7,3-3.1,5.1-3.1h12.9c2,0,4.3-1.4,5.1-3.1l0,0
			c0.8-1.9-0.4-3.3-2.7-3.1c-4.4,0.4-7.2,0.7-9.2,1s-3.5-0.5-3.4-2.1s0.2-3.4,0.2-5.1c0-1.3,1.2-2.9,2.9-3.6
			c1.4-0.6,2.9-1.5,4.5-2.7c0.9-0.6,2.5-1.7,4.5-3.1c2.8-2.1,2.5-5.1-0.6-5.1H116c-2,0-4.2,1.3-5,3c-8.4,16.8-20.7,37.2-37.6,52
			c-1.8,1.6-4.5,1.9-5.7,0.8c-1.1-1.1-2.5-2.2-3.8-3.1c-1.4-0.9-0.9-2.9,0.8-4.4C83.9,123.7,95,101,102.4,84.4l13.8-30.9
			c0.8-1.7,3-3.1,5.1-3.1h61.9c2,0,3,1.4,2.3,3.1L176.4,74c-0.8,1.7-3,3.1-5.1,3.1h-52l-2.2,4.8h56.1c2,0,3,1.4,2.3,3.1l-1.6,3.6
			c-0.8,1.7-3,3.1-5.1,3.1h-4.2c-3,0-6,2.9-5.2,5c1.3,3.4,2.4,7,2.9,10.2c0.2,1.6-1.5,3.5-3.7,4.2l-9.3,3.1c0-1.1,0.1-2.4-0.1-3.7
			l-8,0.5c-2,0.1-4.1,1.5-4.8,3.1l-0.7,1.5c-0.8,1.7,0.2,3.1,2.3,3.1h14.7c2,0,3,1.4,2.3,3.1l-1.6,3.5c-0.8,1.7-3,3.1-5.1,3.1h-14.7
			c-2,0-4.3,1.4-5.1,3.1l-0.9,2c-0.8,1.7,0.2,3.1,2.3,3.1h19.2C151.1,136.9,152.2,138.4,151.4,140.1z M125.3,63.6l-0.1,0.2
			c-0.8,1.7,0.2,3.1,2.3,3.1h34.1c2,0,4.3-1.4,5.1-3.1l0.1-0.2c0.8-1.7-0.2-3.1-2.3-3.1h-34.1C128.4,60.4,126.1,61.9,125.3,63.6z
			 M139.7,93.2c-1.6,1.2-3.2,2.5-4.9,3.7c-2.9,2.1-2.3,5.2,0.9,5.1l11.5-0.6c-0.3-0.9-0.6-1.7-1-2.5c-0.7-1.6,1.1-3.9,3.6-4.7l7-2.2
			h-13.6C142,91.9,140.7,92.3,139.7,93.2z"/>
	</g>
	<g>
		<g>
			<path class="st0" d="M74.1,188.4c-1.7,0-3.4,0.8-4.5,2.1c-0.7,0.9-1.5,1.7-2.3,2.4c4.5,1.1,8.5,2.2,11.7,3.2l-2,1.6
				c-1.5,1.2-3.6,1.6-5.4,1c-2.1-0.7-4.6-1.4-7.3-2.1c-1.3-0.3-2.6-0.2-3.8,0.2c-3.5,1.3-7.8,2.2-12.9,2.7c-2.4,0.3-4.8-0.9-6-3
				c-0.2-0.3-0.4-0.7-0.6-1c5.1-0.2,9.5-0.6,13.1-1.5c-2.7-0.5-5.4-1.1-8.3-1.6c1-1.2,2.1-2.5,3.2-4.1h-8v-4.1h7.3
				c2.2,0,4.3-1.2,5.3-3.2c0.1-0.2,0.2-0.4,0.3-0.6h-4.3c-3.3,0-5.9-2.6-5.9-5.9l0,0c0-3.3,2.6-5.9,5.9-5.9h3.2v-2.4h-11v-4.3h36.8
				v4.3H67.1v2.4h4.2c3.3,0,5.9,2.6,5.9,5.9l0,0c0,3.3-2.6,5.9-5.9,5.9H54.6l4.4,1c-0.4,0.9-0.9,1.9-1.5,2.8h10.2
				c0.3-0.8,0.6-1.6,0.9-2.4l4.9,1.2c-0.1,0.4-0.3,0.8-0.4,1.2h6.3v4.1h-5.3V188.4z M48.5,176.5h4.4v-3.9h-4.4V176.5z M54.9,188.4
				c-0.4,0.5-0.8,1.1-1.2,1.6c1.6,0.3,3.3,0.6,4.9,1c1.7,0.4,3.6,0,4.9-1.2c0.5-0.4,1-0.9,1.4-1.4L54.9,188.4L54.9,188.4z
				 M57.6,168.6h4.8v-2.4h-4.8V168.6z M62.4,176.5v-3.9h-4.8v3.9H62.4z M67.1,172.6v3.9h5.1v-3.9H67.1z"/>
		</g>
		<g>
			<path class="st0" d="M121.6,196.1L121.6,196.1c0,1.4-1.1,2.5-2.5,2.5H85.9c-1.4,0-2.5-1.1-2.5-2.5l0,0c0-1.4,1.1-2.5,2.5-2.5h10
				c1.4,0,2.5-1.1,2.5-2.5v-26.7c0-1.4,1.1-2.5,2.5-2.5h0.3c1.4,0,2.5,1.1,2.5,2.5v7.1c0,1.4,1.1,2.5,2.5,2.5h9.9
				c1.4,0,2.5,1.1,2.5,2.5l0,0c0,1.4-1.1,2.5-2.5,2.5h-9.9c-1.4,0-2.5,1.1-2.5,2.5v9.5c0,1.4,1.1,2.5,2.5,2.5H119
				C120.4,193.5,121.6,194.7,121.6,196.1z"/>
		</g>
		<g>
			<path class="st0" d="M138.2,193.6c-4.3,1.1-9,2.2-12.8,3l-0.9-4.6l2.7-0.4c1.2-0.2,2.1-1.2,2.1-2.4v-7.9h-3.6v-4.5h3.6v-9.1h-4.1
				V163h13v4.6H134v9.1h3.3v4.5H134v8.8l3.7-0.8L138.2,193.6z M148.1,178.7c0,8.6-1.1,16.3-9.1,21.2c-0.6-1.1-2.1-2.9-3.1-3.6
				c6.3-3.8,7.6-9.5,7.7-16l-1.9,0.9c-0.9-2.6-2.9-6.8-4.6-9.9l3.7-1.4c1,1.7,2,3.6,2.9,5.4v-14.9h4.4L148.1,178.7L148.1,178.7z
				 M164.4,193.8v4.6h-17.6v-4.6h5.4c1.1,0,2.1-0.9,2.1-2.1v-9.4h-4.7v-4.5h4.7v-8.3c0-1.1-0.9-2.1-2.1-2.1H149V163h14.7v4.6h-4.6
				V178h4.1v4.5h-4.1v9.4c0,1.1,0.9,2.1,2.1,2.1h3.2V193.8z"/>
		</g>
	</g>
	<g>
		<path class="st0" d="M212.7,66.6c-1.4,2.5-3,4.6-4.8,6.1c-0.7-1.1-2.2-2.7-3.2-3.5c2.8-2.1,5.5-5.7,7.2-9.4h-6.1v-4.3h4.5
			c1.4,0,2.5-1.1,2.5-2.5v-3.5h4.8V53c0,1.4,1.1,2.5,2.5,2.5h3.5v4.3h-6v1.6c1.1,0.6,3.2,2.1,4.8,3.2c1.1,0.8,1.3,2.2,0.6,3.4
			l-1.4,2.1c-1-1.1-2.5-2.6-4.1-4v8.8h-4.8V66.6z M205,84.4c1.5-2.2,3-5.7,3.7-8.7l2.4,0.9c1.2,0.5,1.8,1.8,1.5,3
			c-0.5,1.6-1.1,3.3-1.7,4.7c-0.6,1.3-2.1,1.8-3.4,1.2L205,84.4z M229.1,83.7c2,0,2.3-0.6,2.5-4.9c1,0.8,3.1,1.5,4.5,1.8
			c-0.6,6-2,7.5-6.7,7.5h-7.6c-5.7,0-7.2-1.4-7.2-5.8V79c0-1.4,1.1-2.5,2.5-2.5l0,0c1.4,0,2.5,1.1,2.5,2.5v3.2
			c0,1.3,0.4,1.4,2.7,1.4L229.1,83.7L229.1,83.7z M224.2,73.2L225,74V54.1c0-1.4,1.1-2.5,2.5-2.5h12.2c1.4,0,2.5,1.1,2.5,2.5v17.8
			c0,1.4-1.1,2.5-2.5,2.5h-14.2c1.6,1.5,3.5,3.3,4.5,4.5l-3.6,3c-1.2-1.5-3.7-4.1-5.6-5.9L224.2,73.2z M229.6,58.1h7.8v-2.5h-7.8
			V58.1z M229.6,64.2h7.8v-2.4h-7.8V64.2z M229.6,70.4h7.8v-2.5h-7.8V70.4z M240.6,76.9c0.9,1.4,1.9,2.9,2.8,4.3
			c0.8,1.2,0.3,2.8-1,3.5l-0.2,0.1c-1.2,0.6-2.7,0.2-3.3-1c-1.1-2.1-2.7-4.6-3.9-6.6l2.5-1.1C238.6,75.5,239.9,75.9,240.6,76.9z"/>
		<path class="st0" d="M262,80.6c2.7-0.5,5.4-0.9,8.1-1.3l0.3,4.3c-6.7,1.3-13.9,2.6-19.5,3.6c-0.9,0.2-1.8-0.4-2-1.3l-0.7-3
			c2.2-0.3,4.8-0.7,7.6-1.2c0.8-0.1,1.5-0.9,1.5-1.7v-2.5c0-1-0.8-1.7-1.7-1.7h-5.9v-4.3h7.7v-3.8h4.8v3.8h7.6v4.3h-5.9
			c-1,0-1.7,0.8-1.7,1.7v3.1H262z M248.5,52h22v4.3h-6c2.2,2.7,4.8,6.5,5.9,9l-3.8,2.5c-0.3-0.6-0.6-1.3-1-2.1
			c-8.3,0.7-11.6,1-13.3,1.3c-0.8,0.2-1.7-0.3-1.9-1.1c-0.4-1-0.8-2.2-1.1-3c0.6-0.2,1.3-0.8,1.9-1.8c0.5-0.6,1.6-2.5,2.6-4.7h-5.4
			L248.5,52L248.5,52z M263.3,61.9c-0.8-1.2-1.6-2.4-2.4-3.5l3.5-2.1h-4c-0.6,0-1.2,0.3-1.5,0.9c-1,1.7-2.1,3.5-3.2,5.1L263.3,61.9z
			 M276.8,79h-4.6V53.5h4.6V79z M285.1,50v32.7c0,2.7-0.5,3.9-2.1,4.7c-1.4,0.6-3.3,0.9-5.9,0.9c-0.8,0-1.5-0.5-1.7-1.2
			c-0.3-1.2-0.9-2.6-1.4-3.6c2.2,0.1,4.5,0.1,5.2,0.1s1-0.3,1-1V50H285.1z"/>
		<path class="st0" d="M295.7,77.6v3.6h-4.6V54.3c0-1.4,1.1-2.5,2.5-2.5h9.1c1.4,0,2.5,1.1,2.5,2.5v20.8c0,1.4-1.1,2.5-2.5,2.5
			H295.7z M295.7,56.4v6h4.8v-6H295.7z M300.5,73.1v-6.2h-4.8v6.2H300.5z M327.3,83.2c0,2.7-0.5,4-2.2,4.8c-1.3,0.6-3.1,0.8-5.6,0.9
			c-1.1,0-2.1-0.7-2.5-1.8c-0.3-1.1-0.8-2.3-1.3-3c2.3,0.1,4.8,0.1,5.5,0c0.8,0,1.1-0.3,1.1-1v-4.9c0-1.4-1.1-2.5-2.5-2.5h-4.5
			c-1.1,0-2.2,0.8-2.5,1.9c-0.9,3.5-2.4,7-4.9,9.8c-0.9,1-2.5,1.1-3.6,0.2l0,0c-1-0.9-1.1-2.5-0.2-3.5c4.5-5.1,5-12,5-17.6V53.7
			c0-1.4,1.1-2.5,2.5-2.5h13.2c1.4,0,2.5,1.1,2.5,2.5V83.2z M322.4,68.7v-0.4c0-1.4-1.1-2.5-2.5-2.5H314v0.7c0,1.5,0,3.1-0.2,4.7h6
			C321.2,71.2,322.4,70.1,322.4,68.7z M314,58.4v0.4c0,1.4,1.1,2.5,2.5,2.5h3.3c1.4,0,2.5-1.1,2.5-2.5v-0.4c0-1.4-1.1-2.5-2.5-2.5
			h-3.3C315.2,55.9,314,57,314,58.4z"/>
		<path class="st0" d="M355.7,71.7c2.9,5.5,7.5,9.6,14.2,11.8c0.7,0.2,1,1.1,0.5,1.7c-0.7,0.8-1.4,1.8-1.9,2.7
			c-0.3,0.4-0.8,0.7-1.3,0.5c-6.8-2.4-11.4-6.5-14.8-12.3c-0.4-0.7-1.4-0.7-1.8,0c-2.5,4.8-7,9.2-14.9,12.4c-0.5,0.2-1,0-1.3-0.4
			c-0.8-1.2-2-2.8-2.9-3.6c8.9-3.2,13.1-8,15.1-12.9c0.3-0.7-0.3-1.4-1-1.4H334c-0.6,0-1-0.5-1-1v-3.1c0-0.6,0.5-1,1-1h14.1
			c0.1-1.1,0.1-2.2,0.1-3.2v-4.3h-12.8c-0.6,0-1-0.5-1-1v-3.1c0-0.6,0.5-1,1-1H367c0.6,0,1,0.5,1,1v3.1c0,0.6-0.5,1-1,1h-13.3v4.3
			c0,1,0,2.1-0.1,3.2h15c0.6,0,1,0.5,1,1v3.1c0,0.6-0.5,1-1,1h-12C355.9,70.2,355.4,71,355.7,71.7z"/>
	</g>
	<path class="st0" d="M207.8,1l-13.6,15.9c-0.3,0.3-0.1,0.9,0.3,1l14.9,3.7c0.5,0.1,0.6,0.8,0.2,1.1l-29.3,23
		c-0.6,0.5-1.4-0.4-0.8-0.9l19.6-19c0.3-0.3,0.2-0.9-0.3-1l-15.2-3.9c-0.5-0.1-0.6-0.7-0.2-1.1l23.5-19.6
		C207.5-0.3,208.3,0.4,207.8,1z"/>
	<path class="st0" d="M217.5,33.8l-9.7,4.1c-0.2,0.1-0.3,0.4-0.1,0.5l5.9,5c0.2,0.2,0.1,0.5-0.1,0.5L195,47.8
		c-0.4,0.1-0.5-0.5-0.2-0.6l13.1-4.2c0.2-0.1,0.3-0.4,0.1-0.5l-6-5.2c-0.2-0.2-0.1-0.5,0.1-0.5l15-3.6
		C217.6,33.2,217.8,33.7,217.5,33.8z"/>
	<g>
		<path class="st0" d="M207,221.9c-67.1,0-134.1,0-201.2,0c1.9,1.9,3.9,3.9,5.8,5.8c0-61.7,0-123.4,0-185.1
			c-1.9,1.9-3.9,3.9-5.8,5.8c15.9,0,31.8,0,47.7,0c7.5,0,7.5-11.6,0-11.6c-15.9,0-31.8,0-47.7,0c-3.1,0-5.8,2.7-5.8,5.8
			C0,104.3,0,166,0,227.7c0,3.1,2.7,5.8,5.8,5.8c67.1,0,134.1,0,201.2,0C214.4,233.5,214.5,221.9,207,221.9L207,221.9z"/>
	</g>
	<g>
		<path class="st0" d="M359.9,24.3c15.9,0,31.8,0,47.7,0c-1.9-1.9-3.9-3.9-5.8-5.8c0,61.7,0,123.4,0,185.1c1.9-1.9,3.9-3.9,5.8-5.8
			c-15.9,0-31.8,0-47.7,0c-7.5,0-7.5,11.6,0,11.6c15.9,0,31.8,0,47.7,0c3.1,0,5.8-2.7,5.8-5.8c0-61.7,0-123.4,0-185.1
			c0-3.1-2.7-5.8-5.8-5.8c-15.9,0-31.8,0-47.7,0C352.5,12.7,352.4,24.3,359.9,24.3L359.9,24.3z"/>
	</g>
	<g>
		<path class="st0" d="M243.7,24.3c28.8,0,57.6,0,86.4,0c7.5,0,7.5-11.6,0-11.6c-28.8,0-57.6,0-86.4,0
			C236.2,12.7,236.2,24.3,243.7,24.3L243.7,24.3z"/>
	</g>
	<g>
		<path class="st0" d="M203.1,225.3c-9.3,18.9-18.7,37.7-28,56.6c-3.1,6.2,4,11,9.1,7c24.5-18.9,49-37.9,73.5-56.8
			c5.9-4.6-2.4-12.7-8.2-8.2c-24.5,18.9-49,37.9-73.5,56.8c3,2.3,6.1,4.7,9.1,7c9.3-18.9,18.7-37.7,28-56.6
			C216.4,224.5,206.4,218.6,203.1,225.3L203.1,225.3z"/>
	</g>
	<path class="st0" d="M163.5,138.8c0-3.7,1.1-6.5,3.5-8.4c2.3-1.9,4.9-2.8,7.7-2.8s5.4,0.9,7.7,2.8c2.3,1.9,3.4,4.7,3.4,8.4
		s-1.1,6.5-3.4,8.3c-2.3,1.9-4.9,2.8-7.7,2.8s-5.4-0.9-7.7-2.8C164.7,145.3,163.5,142.6,163.5,138.8z"/>
</g>
</svg>
