<?xml version="1.0" encoding="utf-8"?>
<!-- Generator: Adobe Illustrator 23.0.1, SVG Export Plug-In . SVG Version: 6.00 Build 0)  -->
<svg version="1.1" id="圖層_1" xmlns="http://www.w3.org/2000/svg" xmlns:xlink="http://www.w3.org/1999/xlink" x="0px" y="0px"
	 viewBox="0 0 275.2 266.9" style="enable-background:new 0 0 275.2 266.9;" xml:space="preserve">
<style type="text/css">
	.st0{fill:none;stroke:#FFFFFF;stroke-width:4;stroke-miterlimit:10;}
	.st1{fill:none;stroke:#FFFFFF;stroke-width:2;stroke-miterlimit:10;}
	.st2{fill:#FFFFFF;}
</style>
<g id="圖層_3">
</g>
<path class="st0" d="M137.1,4.6c69.9,0,126.5,56.6,126.5,126.5"/>
<path class="st1" d="M10.6,131.1"/>
<path class="st0" d="M137.1,4.6c69.9,0,126.5,56.6,126.5,126.5"/>
<path class="st1" d="M10.6,131.1"/>
<path class="st0" d="M137.1,257.9c-69.9,0-126.5-56.6-126.5-126.5"/>
<path class="st1" d="M263.6,131.4"/>
<path class="st0" d="M137.1,257.9c-69.9,0-126.5-56.6-126.5-126.5"/>
<g>
	<path class="st2" d="M161.5,77.4C161.5,77.4,161.5,77.4,161.5,77.4C161.5,77.4,161.5,77.4,161.5,77.4z"/>
	<path class="st2" d="M48.9,107.7c-0.6,1.2-0.9,2.4-0.9,3.7l-0.1,1.5l0.2-2C48.1,109.8,48.4,108.7,48.9,107.7z"/>
	<path class="st2" d="M50.2,105.8c0.7-0.8,1.6-1.5,2.7-2C51.8,104.2,50.9,104.9,50.2,105.8z"/>
	<path class="st2" d="M105.8,146l0-0.3C105.9,145.8,105.9,145.9,105.8,146z"/>
	<path class="st2" d="M159.8,79.2c0-0.1,0.1-0.1,0.1-0.2C159.9,79,159.8,79.1,159.8,79.2z"/>
	<path class="st2" d="M48.9,107.6c0.1-0.3,0.3-0.5,0.5-0.8C49.2,107,49.1,107.3,48.9,107.6z"/>
	<path class="st2" d="M159.6,79.5c-0.9,1.4-1.4,3-1.4,4.7c0,0.5-0.1,1.1-0.1,1.6l0.2-2.2C158.3,82.1,158.8,80.7,159.6,79.5z"/>
	<path class="st2" d="M163.1,76.4c-0.3,0.1-0.5,0.3-0.7,0.4C162.5,76.7,162.8,76.6,163.1,76.4z"/>
	<path class="st2" d="M49.5,106.6c0.2-0.3,0.4-0.5,0.6-0.8C49.9,106.1,49.7,106.3,49.5,106.6z"/>
	<path class="st2" d="M161.6,77.4C161.5,77.4,161.5,77.4,161.6,77.4c-0.7,0.5-1.2,1-1.6,1.6c0,0.1-0.1,0.1-0.1,0.2
		c-0.1,0.1-0.2,0.2-0.2,0.3c-0.8,1.2-1.3,2.6-1.4,4.1l-0.2,2.2c-0.2,2.7-0.4,5.4-0.5,8.1c-0.1,3.2,1.9,6.3,4.7,7.5
		c1.4,0.7,3,0.9,4.5,0.7c1.6-0.1,2.8-1,4.6-1.5c3.4-1,7.4,0.1,9.8,2.9c0.5,0.5,0.9,1.1,1.2,1.8c5-6.9,21.9-30.8,27.5-38.8
		c-0.1-2.2-1.2-4.4-3.1-5.7c-2.3-1.7-5.5-1.9-8.4-0.4c-11.6,5.1-23.5,10.4-35.2,16c-0.3,0.1-0.5,0.3-0.7,0.4
		C162,77,161.8,77.2,161.6,77.4z"/>
	<path class="st2" d="M211.9,62.8c-0.9-1.7-2.2-3.1-3.8-4c-1.6-0.9-3.4-1.3-5.2-1.3c-1.7,0-3.6,0.7-4.9,1.5
		c-11.6,6-23.1,11.9-34.9,17.4l36.1-17.2c5-2.4,10.6,0.5,12,5.4c0,0,0,0,0,0c0.2,0.6,0.3,1.2,0.3,1.8c0,0.1,0,0.2,0,0.3
		c0,0.1,0,0.2,0,0.2c0,0.2,0,0.5,0,0.8l-8,100.4c-0.2,3.1-2.2,6-5.2,7.2l-9,4c-5.8,2.5-12.2-1.8-12.1-8c0-0.2,0-0.4,0-0.7l4.8-60.2
		c0.1-1.4-0.1-2.6-0.5-3.7c-1.7-4.5-7-7-11.8-4.7c-6,2.8-12.8-1.9-12.3-8.5l0.6-7.7c0-0.5,0.1-1.1,0.1-1.6c0-1.7,0.5-3.3,1.4-4.7
		c0.1-0.1,0.2-0.2,0.2-0.3c0-0.1,0.1-0.1,0.1-0.2c0.4-0.6,1-1.1,1.5-1.5c0,0,0.1,0,0.1-0.1c0.2-0.2,0.5-0.4,0.7-0.5
		c0.2-0.1,0.5-0.3,0.7-0.4c-3,1.3-5,4.5-5,7.6l-0.9,9.7c-0.2,3.4,1.6,6.7,4.6,8.4c1.5,0.8,3.2,1.2,4.9,1.1c1.8-0.1,3.4-1,4.8-1.3
		c2.9-0.7,6,0.6,7.7,2.9c0.8,1.2,1.3,2.5,1.4,3.9c0.1,1.3-0.3,3-0.4,4.6l-2.6,19.3L175,152l-1.2,9.6l-0.6,4.9l-0.3,2.4l-0.1,1.2
		c-0.1,0.5-0.1,1.2-0.1,1.8c0.1,5,3.4,9.7,7.9,11.7c2.3,1,4.9,1.4,7.5,1c1.2-0.1,2.6-0.6,3.5-1l2.2-1l4.5-1.9l2.3-1
		c1.1-0.5,2.2-1.3,3.2-2.1c1.9-1.7,3.4-4,4.2-6.4c0.2-0.6,0.4-1.2,0.4-1.9l0.1-1l0.1-0.6l0.2-2.4c2.1-25.8,3-51.8,3.6-77.8l0.5-19.5
		C213.1,66.4,212.8,64.4,211.9,62.8z"/>
	<path class="st2" d="M198.3,175.3l-9,4c-5.8,2.6-12.2-1.8-12.1-7.9c-0.1,6.2,6.3,10.5,12.1,8L198.3,175.3c2.9-1.2,4.9-4,5.2-7.2
		l8-100.4l-8,100.3C203.1,171.3,201.2,174,198.3,175.3z"/>
	<path class="st2" d="M198.3,175.3l-9,4c-5.8,2.6-12.2-1.8-12.1-7.9c-0.1,6.2,6.3,10.5,12.1,8L198.3,175.3c2.9-1.2,4.9-4,5.2-7.2
		l8-100.4l-8,100.3C203.1,171.3,201.2,174,198.3,175.3z"/>
	<path class="st2" d="M211.5,67c0,0.2,0,0.5,0,0.8C211.5,67.5,211.5,67.3,211.5,67z"/>
	<path class="st2" d="M211.5,67c0,0.2,0,0.5,0,0.8C211.5,67.5,211.5,67.3,211.5,67z"/>
	<path class="st2" d="M159.6,79.5c0.1-0.1,0.1-0.2,0.2-0.3C159.7,79.3,159.6,79.4,159.6,79.5z"/>
	<path class="st2" d="M159.6,79.5c0.1-0.1,0.1-0.2,0.2-0.3C159.7,79.3,159.6,79.4,159.6,79.5z"/>
	<path class="st2" d="M211.4,66.4c0,0.1,0,0.2,0,0.3C211.5,66.7,211.4,66.6,211.4,66.4z"/>
	<path class="st2" d="M211.4,66.4c0,0.1,0,0.2,0,0.3C211.5,66.7,211.4,66.6,211.4,66.4z"/>
	<path class="st2" d="M161.5,77.4c-0.6,0.4-1.1,1-1.5,1.5C160.4,78.4,160.9,77.9,161.5,77.4z"/>
	<path class="st2" d="M161.5,77.4c-0.6,0.4-1.1,1-1.5,1.5C160.4,78.4,160.9,77.9,161.5,77.4z"/>
	<path class="st2" d="M161.6,77.4c0.2-0.2,0.5-0.4,0.7-0.5C162,77,161.8,77.2,161.6,77.4z"/>
	<path class="st2" d="M161.6,77.4c0.2-0.2,0.5-0.4,0.7-0.5C162,77,161.8,77.2,161.6,77.4z"/>
	<path class="st2" d="M206.7,60.8c2,1.3,3,3.5,3.1,5.7c0.6-0.8,1-1.5,1.3-1.9c-1.4-4.9-7-7.8-12-5.4l-36.1,17.2
		c11.7-5.6,23.6-10.9,35.2-16C201.1,59,204.3,59.1,206.7,60.8z"/>
	<path class="st2" d="M206.7,60.8c2,1.3,3,3.5,3.1,5.7c0.6-0.8,1-1.5,1.3-1.9c-1.4-4.9-7-7.8-12-5.4l-36.1,17.2
		c11.7-5.6,23.6-10.9,35.2-16C201.1,59,204.3,59.1,206.7,60.8z"/>
	<path class="st2" d="M182.3,105.4c-0.4-0.6-0.8-1.2-1.2-1.8c-2.4-2.8-6.4-3.9-9.8-2.9c-1.8,0.5-3,1.3-4.6,1.5
		c-1.5,0.1-3.1-0.1-4.5-0.7c-2.8-1.3-4.9-4.3-4.7-7.5c0.1-2.7,0.3-5.4,0.5-8.1l-0.6,7.7c-0.5,6.6,6.3,11.3,12.3,8.5
		c4.7-2.3,10,0.3,11.8,4.7c0,0,0-0.1,0-0.2C181.6,106.3,181.9,105.9,182.3,105.4z"/>
	<path class="st2" d="M182.3,105.4c-0.4-0.6-0.8-1.2-1.2-1.8c-2.4-2.8-6.4-3.9-9.8-2.9c-1.8,0.5-3,1.3-4.6,1.5
		c-1.5,0.1-3.1-0.1-4.5-0.7c-2.8-1.3-4.9-4.3-4.7-7.5c0.1-2.7,0.3-5.4,0.5-8.1l-0.6,7.7c-0.5,6.6,6.3,11.3,12.3,8.5
		c4.7-2.3,10,0.3,11.8,4.7c0,0,0-0.1,0-0.2C181.6,106.3,181.9,105.9,182.3,105.4z"/>
	<path class="st2" d="M107.9,140.1c0.1-0.1,0.2-0.2,0.3-0.3C108.1,139.9,108,140,107.9,140.1z"/>
	<path class="st2" d="M108.7,139.3c0.1-0.1,0.2-0.1,0.2-0.2C108.9,139.2,108.8,139.2,108.7,139.3z"/>
	<path class="st2" d="M107.3,141c0.1-0.1,0.2-0.2,0.2-0.3C107.4,140.7,107.3,140.8,107.3,141z"/>
	<path class="st2" d="M109.7,138.6c0.1,0,0.1-0.1,0.1-0.1C109.8,138.5,109.7,138.6,109.7,138.6z"/>
	<path class="st2" d="M106.8,141.9c0.1-0.1,0.1-0.2,0.2-0.3C106.9,141.6,106.8,141.7,106.8,141.9z"/>
	<path class="st2" d="M106.4,142.8C106.4,142.8,106.4,142.8,106.4,142.8C106.4,142.8,106.4,142.8,106.4,142.8z"/>
	<path class="st2" d="M106.1,143.9c-0.1,0.6-0.2,1.2-0.2,1.8l0,0.3c-0.2,1.9-0.2,3.8-0.4,5.6c-0.1,2.6-0.5,5.3,0.7,7.5
		c1.1,2.2,3.3,3.8,5.6,4.3c1.2,0.2,2.4,0.1,3.5-0.1c0.6-0.1,1.1-0.4,1.6-0.7c0.7-0.3,1.3-0.6,2-0.8c2.4-0.7,5.2-0.4,7.5,0.9
		c4.4-8.8,8.8-17.6,13.5-26.2c-0.1-0.5-0.1-1.1,0-1.7c0.1-1.9,0.9-3.4,2.2-4.3c0.5-0.4,1.1-0.7,1.6-0.9c1.6-2.8,3.1-5.5,4.8-8.3
		c-0.6,0.1-1.2,0.3-1.8,0.6c-2.4,1-4.9,1.9-7.2,3c-9.7,4.3-19.3,8.5-28.7,13.1C108.4,139.1,106.7,141.3,106.1,143.9z"/>
	<path class="st2" d="M106,144.5c0-0.2,0-0.4,0.1-0.6C106,144.1,106,144.3,106,144.5z"/>
	<path class="st2" d="M106.1,143.8C106.1,143.8,106.1,143.8,106.1,143.8c0.1-0.3,0.2-0.6,0.3-1C106.2,143.1,106.1,143.5,106.1,143.8
		z"/>
	<path class="st2" d="M106.4,142.8c0.1-0.3,0.2-0.6,0.4-0.9C106.6,142.2,106.5,142.5,106.4,142.8z"/>
	<path class="st2" d="M108.9,139.1c0.2-0.2,0.5-0.4,0.7-0.5C109.4,138.7,109.2,138.9,108.9,139.1z"/>
	<path class="st2" d="M109.8,138.5c0.3-0.2,0.6-0.4,1-0.5C110.4,138.1,110.1,138.3,109.8,138.5z"/>
	<path class="st2" d="M106.9,141.5c0.1-0.2,0.2-0.4,0.3-0.6C107.1,141.1,107,141.3,106.9,141.5z"/>
	<path class="st2" d="M108.2,139.8c0.2-0.2,0.3-0.3,0.5-0.5C108.5,139.5,108.3,139.6,108.2,139.8z"/>
	<path class="st2" d="M107.5,140.6c0.1-0.2,0.3-0.3,0.4-0.5C107.8,140.3,107.6,140.4,107.5,140.6z"/>
	<path class="st2" d="M154.2,119.1c-2.9-1-6.3-0.4-8.6,1c-2.2,1.3-4.6,2.5-6.9,3.7c-9.2,4.9-18.5,9.6-27.9,14.1l36.1-17.2
		c6-2.8,12.8,1.9,12.3,8.5l-5.5,69.7c0,0.4-0.1,0.8-0.2,1.2c-0.3,3-2.2,5.6-4.9,7l-9,4.3c-6,2.8-12.8-1.9-12.3-8.5l2.4-29.9
		c0.3-3.6-1.5-6.6-4.2-8.1c0.1-0.3,0.3-0.6,0.4-0.8c-2.4-1.5-5.5-2-8.4-0.6c-6,2.8-12.8-1.9-12.3-8.5l0.7-8.9c0-0.1,0-0.2,0-0.3
		l0.1-0.7c0-0.2,0-0.3,0.1-0.5c-0.3,2.3-0.5,4.7-0.7,7.1c-0.1,1.3-0.3,2.5-0.4,3.9c-0.1,1.3,0.1,2.7,0.7,4c1,2.5,3.3,4.6,6,5.3
		c1.3,0.4,2.8,0.4,4.3,0.2c0.7-0.1,1.4-0.4,2.1-0.6c0.5-0.1,1-0.4,1.6-0.4c2.2-0.4,4.6,0.4,6.1,1.9c1.6,1.5,2.4,3.6,2.1,5.6
		l-1.1,7.6l-2.2,15.5l-0.5,3.9l-0.3,1.9l-0.1,1c0,0.3-0.1,0.9-0.1,1.3c-0.1,3.8,1.6,7.8,4.8,10.2c3,2.5,7.3,3.6,11.3,2.5
		c0.4-0.1,1-0.3,1.4-0.4c0.4-0.2,1-0.4,1.3-0.5l1.8-0.7l3.6-1.6l3.6-1.6c1.9-0.8,3.5-2.2,4.8-3.8c1.3-1.6,2.2-3.6,2.6-5.6
		c0.1-0.5,0.1-1,0.2-1.6l0.1-1l0.1-1.9c1.7-20.8,2.2-41.7,2.4-62.6l0.1-3.9c0-1.3-0.1-3.2-0.7-4.6
		C159.6,122.4,157.1,120,154.2,119.1z"/>
	<path class="st2" d="M146.7,121.9c0.6-0.3,1.2-0.5,1.8-0.6c0-0.1,0.1-0.1,0.1-0.2c5.5-1.2,10.9,3.1,10.4,9.3l-5.5,69.7
		c0,0,0,0.1,0,0.1c0.1-0.4,0.1-0.8,0.2-1.2l5.5-69.7c0.5-6.6-6.3-11.3-12.3-8.5L110.8,138c9.4-4.6,19-8.7,28.7-13.1
		C141.8,123.8,144.3,122.9,146.7,121.9z"/>
	<path class="st2" d="M146.7,121.9c0.6-0.3,1.2-0.5,1.8-0.6c0-0.1,0.1-0.1,0.1-0.2c5.5-1.2,10.9,3.1,10.4,9.3l-5.5,69.7
		c0,0,0,0.1,0,0.1c0.1-0.4,0.1-0.8,0.2-1.2l5.5-69.7c0.5-6.6-6.3-11.3-12.3-8.5L110.8,138c9.4-4.6,19-8.7,28.7-13.1
		C141.8,123.8,144.3,122.9,146.7,121.9z"/>
	<path class="st2" d="M105.9,145.7c0.1-0.6,0.1-1.2,0.2-1.8c0.6-2.5,2.3-4.8,4.7-5.9c-0.3,0.2-0.7,0.3-1,0.5c-0.1,0-0.1,0.1-0.1,0.1
		c-0.2,0.2-0.5,0.3-0.7,0.5c-0.1,0.1-0.2,0.1-0.2,0.2c-0.2,0.2-0.4,0.3-0.5,0.5c-0.1,0.1-0.2,0.2-0.3,0.3c-0.1,0.2-0.3,0.3-0.4,0.5
		c-0.1,0.1-0.2,0.2-0.2,0.3c-0.1,0.2-0.2,0.4-0.3,0.6c-0.1,0.1-0.1,0.2-0.2,0.3c-0.1,0.3-0.3,0.6-0.4,0.9c0,0,0,0,0,0
		c-0.1,0.3-0.2,0.7-0.3,1c0,0.2-0.1,0.4-0.1,0.6c0,0.2-0.1,0.3-0.1,0.5L105.9,145.7z"/>
	<path class="st2" d="M105.9,145.7c0.1-0.6,0.1-1.2,0.2-1.8c0.6-2.5,2.3-4.8,4.7-5.9c-0.3,0.2-0.7,0.3-1,0.5c-0.1,0-0.1,0.1-0.1,0.1
		c-0.2,0.2-0.5,0.3-0.7,0.5c-0.1,0.1-0.2,0.1-0.2,0.2c-0.2,0.2-0.4,0.3-0.5,0.5c-0.1,0.1-0.2,0.2-0.3,0.3c-0.1,0.2-0.3,0.3-0.4,0.5
		c-0.1,0.1-0.2,0.2-0.2,0.3c-0.1,0.2-0.2,0.4-0.3,0.6c-0.1,0.1-0.1,0.2-0.2,0.3c-0.1,0.3-0.3,0.6-0.4,0.9c0,0,0,0,0,0
		c-0.1,0.3-0.2,0.7-0.3,1c0,0.2-0.1,0.4-0.1,0.6c0,0.2-0.1,0.3-0.1,0.5L105.9,145.7z"/>
	<path class="st2" d="M119,161.7c-0.7,0.2-1.3,0.5-2,0.8c-0.5,0.2-1,0.5-1.6,0.7c-1.1,0.3-2.3,0.4-3.5,0.1c-2.3-0.4-4.5-2.1-5.6-4.3
		c-1.3-2.2-0.9-4.9-0.7-7.5c0.2-1.8,0.2-3.7,0.4-5.6l-0.7,8.9c-0.5,6.6,6.3,11.3,12.3,8.5c2.9-1.4,6-1,8.4,0.6
		c0.2-0.5,0.4-0.9,0.7-1.4C124.2,161.3,121.4,161,119,161.7z"/>
	<path class="st2" d="M119,161.7c-0.7,0.2-1.3,0.5-2,0.8c-0.5,0.2-1,0.5-1.6,0.7c-1.1,0.3-2.3,0.4-3.5,0.1c-2.3-0.4-4.5-2.1-5.6-4.3
		c-1.3-2.2-0.9-4.9-0.7-7.5c0.2-1.8,0.2-3.7,0.4-5.6l-0.7,8.9c-0.5,6.6,6.3,11.3,12.3,8.5c2.9-1.4,6-1,8.4,0.6
		c0.2-0.5,0.4-0.9,0.7-1.4C124.2,161.3,121.4,161,119,161.7z"/>
	<path class="st2" d="M50.1,105.8c-0.2,0.2-0.4,0.5-0.6,0.8c0,0.1-0.1,0.1-0.1,0.2c-0.2,0.2-0.3,0.5-0.5,0.8c0,0.1-0.1,0.1-0.1,0.2
		c-0.5,1-0.8,2.1-0.9,3.2l-0.2,2l-0.5,8.1c-0.1,3.2,1.8,6.2,4.5,7.6c1.3,0.7,2.9,1,4.4,0.9c1.6-0.1,2.7-0.8,4.5-1.4
		c1.4-0.4,2.8-0.5,4.3-0.3c2.8-3.4,5.6-6.9,8.4-10.4c7.9-9.8,15.8-19.4,24.1-28.7c-0.3-0.3-0.7-0.6-1.1-0.9c-1.2-0.7-2.6-1.2-4-1.3
		c-1.5-0.1-2.8,0.4-4.3,1.2c-11.7,5.2-23.5,10.4-35.2,16C51.8,104.3,50.9,104.9,50.1,105.8C50.2,105.8,50.1,105.8,50.1,105.8z
		 M53.1,119.5c0.1-1.6,0.7-2.8,1.8-3.5c1-0.7,2.2-1,3.4-1c1.2,0.1,2.3,0.6,3.2,1.5c0.9,0.9,1.3,2.2,1.2,3.7
		c-0.1,1.6-0.7,2.8-1.8,3.5c-1,0.7-2.2,1-3.4,1c-1.2-0.1-2.3-0.6-3.2-1.5C53.4,122.4,53,121.2,53.1,119.5z"/>
	<path class="st2" d="M97.6,86c-1.6-0.9-3.4-1.3-5.2-1.1c-1.8,0.1-3.5,0.9-4.9,1.6c-11.5,5.9-23,11.7-34.6,17.2l36.1-17.2
		c3.4-1.6,6.9-0.8,9.4,1.3c0,0,0,0,0,0c1.9,1.7,3.2,4.3,3,7.2l-7.8,98.6c-0.2,2.2-1.2,4.3-2.9,5.8c-0.6,0.5-1.2,1-1.9,1.3l-9,4.6
		c-6,3.1-13.1-1.6-12.5-8.4l4.7-59.2c0.5-6.6-6.3-11.3-12.3-8.5c-6,2.8-12.8-1.9-12.3-8.5l0.7-7.9l0.1-1.5c0-1.3,0.4-2.6,0.9-3.7
		c0-0.1,0.1-0.1,0.1-0.2c0.1-0.3,0.3-0.5,0.5-0.8c0-0.1,0.1-0.1,0.1-0.2c0.2-0.3,0.4-0.5,0.6-0.8c0,0,0,0,0,0c0.7-0.8,1.6-1.5,2.7-2
		c-2.9,1.3-4.9,4.5-5.1,7.8l-0.9,9.6c-0.2,3.3,1.5,6.6,4.5,8.4c1.4,0.9,3.1,1.3,4.9,1.3c1.7,0.1,3.5-0.8,4.8-1.2
		c2.9-0.8,6,0.4,7.8,2.6c0.9,1,1.4,2.4,1.6,3.7c0.1,0.7,0,1.3-0.1,2.1l-0.3,2.4l-2.5,19.2l-2.5,19.2l-1.2,9.6l-0.6,4.8l-0.3,2.4
		l-0.1,1.2l-0.1,1.8c0.1,4.9,3.4,9.6,8,11.6c2.2,1,4.9,1.3,7.4,1c1.3-0.2,2.5-0.6,3.6-1.1l2.3-1.1l4.3-2.2l2.2-1
		c0.5-0.3,2-1,2.9-1.8c2-1.6,3.6-3.7,4.5-6.1c0.4-1.1,0.7-2.5,0.8-3.7l0.2-2.4c2.1-25.7,3-51.4,3.6-77.2l0.5-19.3
		C103.1,91.3,100.8,87.6,97.6,86z"/>
	<path class="st2" d="M92.3,86.6c1.4,0.1,2.8,0.5,4,1.3c0.4,0.3,0.8,0.6,1.1,0.9c0.3-0.3,0.5-0.6,0.8-0.9c-2.4-2.1-6-2.9-9.4-1.3
		l-36.1,17.2c11.6-5.6,23.4-10.8,35.2-16C89.6,87,90.8,86.5,92.3,86.6z"/>
	<path class="st2" d="M92.3,86.6c1.4,0.1,2.8,0.5,4,1.3c0.4,0.3,0.8,0.6,1.1,0.9c0.3-0.3,0.5-0.6,0.8-0.9c-2.4-2.1-6-2.9-9.4-1.3
		l-36.1,17.2c11.6-5.6,23.4-10.8,35.2-16C89.6,87,90.8,86.5,92.3,86.6z"/>
	<path class="st2" d="M48.9,107.7c0-0.1,0.1-0.1,0.1-0.2C48.9,107.6,48.9,107.7,48.9,107.7z"/>
	<path class="st2" d="M48.9,107.7c0-0.1,0.1-0.1,0.1-0.2C48.9,107.6,48.9,107.7,48.9,107.7z"/>
	<path class="st2" d="M50.1,105.8C50.1,105.8,50.2,105.8,50.1,105.8C50.2,105.8,50.1,105.8,50.1,105.8z"/>
	<path class="st2" d="M50.1,105.8C50.1,105.8,50.2,105.8,50.1,105.8C50.2,105.8,50.1,105.8,50.1,105.8z"/>
	<path class="st2" d="M49.4,106.8c0-0.1,0.1-0.1,0.1-0.2C49.5,106.6,49.4,106.7,49.4,106.8z"/>
	<path class="st2" d="M49.4,106.8c0-0.1,0.1-0.1,0.1-0.2C49.5,106.6,49.4,106.7,49.4,106.8z"/>
	<path class="st2" d="M79.7,205.4c-6,3.1-13.1-1.6-12.5-8.4l4.7-59.2c0.4-4.9-3.2-8.7-7.5-9.3c0.2-0.2,0.4-0.4,0.5-0.7
		c-1.4-0.2-2.9-0.1-4.3,0.3c-1.8,0.6-2.9,1.3-4.5,1.4c-1.5,0.1-3.1-0.2-4.4-0.9c-2.7-1.4-4.6-4.4-4.5-7.6l0.5-8.1l-0.7,7.9
		c-0.5,6.6,6.3,11.3,12.3,8.5c6-2.8,12.8,1.9,12.3,8.5l-4.7,59.2C66.6,203.8,73.6,208.5,79.7,205.4l9-4.6c0.7-0.4,1.3-0.8,1.9-1.3
		c-0.5,0.5-1.2,0.9-1.8,1.2L79.7,205.4z"/>
	<path class="st2" d="M79.7,205.4c-6,3.1-13.1-1.6-12.5-8.4l4.7-59.2c0.4-4.9-3.2-8.7-7.5-9.3c0.2-0.2,0.4-0.4,0.5-0.7
		c-1.4-0.2-2.9-0.1-4.3,0.3c-1.8,0.6-2.9,1.3-4.5,1.4c-1.5,0.1-3.1-0.2-4.4-0.9c-2.7-1.4-4.6-4.4-4.5-7.6l0.5-8.1l-0.7,7.9
		c-0.5,6.6,6.3,11.3,12.3,8.5c6-2.8,12.8,1.9,12.3,8.5l-4.7,59.2C66.6,203.8,73.6,208.5,79.7,205.4l9-4.6c0.7-0.4,1.3-0.8,1.9-1.3
		c-0.5,0.5-1.2,0.9-1.8,1.2L79.7,205.4z"/>
	<path class="st2" d="M73.1,135.6c0.2,0.9,0.2,1.9,0.2,2.8l-0.1,2.4l-0.5,19.3l-0.5,19.3l-0.6,18.7c0.1,1.6,1.3,2.8,2.7,3.4
		c0.7,0.2,1.4,0.3,2.1,0.1c0.3-0.1,0.7-0.2,1-0.4l2-1l4.3-2.2c1.3-0.7,3.2-1.6,3.4-1.9c0.5-0.4,0.9-1,1.1-1.6c0.1-0.4,0.1-0.5,0.2-1
		l0.1-2.4c2-25.8,5.2-51.4,8.7-77l2.5-19.2c0.3-2.2-0.6-4.5-2.2-6.1c-8.4,9.3-16.2,19-24.1,28.7c-2.8,3.5-5.6,6.9-8.4,10.4
		c2.1,0.3,4.1,1.3,5.6,2.8C71.8,132,72.7,133.7,73.1,135.6z M76.4,151.2c0.3-3.6,5.8-3.1,5.5,0.4c-1.2,14.9-2.4,29.9-3.6,44.9
		c-0.2,3.6-5.8,3.1-5.5-0.4C74,181.1,75.2,166.1,76.4,151.2z"/>
	<path class="st2" d="M73.1,135.6c0.2,0.9,0.2,1.9,0.2,2.8l-0.1,2.4l-0.5,19.3l-0.5,19.3l-0.6,18.7c0.1,1.6,1.3,2.8,2.7,3.4
		c0.7,0.2,1.4,0.3,2.1,0.1c0.3-0.1,0.7-0.2,1-0.4l2-1l4.3-2.2c1.3-0.7,3.2-1.6,3.4-1.9c0.5-0.4,0.9-1,1.1-1.6c0.1-0.4,0.1-0.5,0.2-1
		l0.1-2.4c2-25.8,5.2-51.4,8.7-77l2.5-19.2c0.3-2.2-0.6-4.5-2.2-6.1c-8.4,9.3-16.2,19-24.1,28.7c-2.8,3.5-5.6,6.9-8.4,10.4
		c2.1,0.3,4.1,1.3,5.6,2.8C71.8,132,72.7,133.7,73.1,135.6z M76.4,151.2c0.3-3.6,5.8-3.1,5.5,0.4c-1.2,14.9-2.4,29.9-3.6,44.9
		c-0.2,3.6-5.8,3.1-5.5-0.4C74,181.1,75.2,166.1,76.4,151.2z"/>
	<path class="st2" d="M101.2,95.1l-7.8,98.7c-0.2,2.2-1.2,4.2-2.8,5.7c1.7-1.5,2.7-3.5,2.9-5.8L101.2,95.1c0.3-3-1-5.5-2.9-7.2
		c0,0,0,0,0,0C100.2,89.6,101.5,92.1,101.2,95.1z"/>
	<path class="st2" d="M101.2,95.1l-7.8,98.7c-0.2,2.2-1.2,4.2-2.8,5.7c1.7-1.5,2.7-3.5,2.9-5.8L101.2,95.1c0.3-3-1-5.5-2.9-7.2
		c0,0,0,0,0,0C100.2,89.6,101.5,92.1,101.2,95.1z"/>
	<path class="st2" d="M99.7,94.9l-2.5,19.2c-3.5,25.5-6.7,51.1-8.7,77l-0.1,2.4c-0.1,0.5-0.1,0.7-0.2,1c-0.2,0.6-0.6,1.1-1.1,1.6
		c-0.1,0.2-2,1.1-3.4,1.9l-4.3,2.2l-2,1c-0.3,0.1-0.7,0.3-1,0.4c-0.7,0.2-1.4,0.1-2.1-0.1c-1.4-0.5-2.5-1.8-2.7-3.4l0.6-18.7
		l0.5-19.3l0.5-19.3l0.1-2.4c0-0.9,0-1.9-0.2-2.8c-0.4-1.9-1.3-3.6-2.5-4.9c-1.5-1.5-3.5-2.5-5.6-2.8c-0.2,0.2-0.4,0.4-0.5,0.7
		c4.3,0.6,7.8,4.4,7.5,9.3L67.2,197c-0.5,6.7,6.5,11.5,12.5,8.4l9-4.6c0.7-0.3,1.3-0.8,1.8-1.2c1.6-1.5,2.6-3.5,2.8-5.7l7.8-98.7
		c0.2-3-1-5.5-2.9-7.2c-0.3,0.3-0.5,0.6-0.8,0.9C99.2,90.4,100,92.7,99.7,94.9z"/>
	<path class="st2" d="M99.7,94.9l-2.5,19.2c-3.5,25.5-6.7,51.1-8.7,77l-0.1,2.4c-0.1,0.5-0.1,0.7-0.2,1c-0.2,0.6-0.6,1.1-1.1,1.6
		c-0.1,0.2-2,1.1-3.4,1.9l-4.3,2.2l-2,1c-0.3,0.1-0.7,0.3-1,0.4c-0.7,0.2-1.4,0.1-2.1-0.1c-1.4-0.5-2.5-1.8-2.7-3.4l0.6-18.7
		l0.5-19.3l0.5-19.3l0.1-2.4c0-0.9,0-1.9-0.2-2.8c-0.4-1.9-1.3-3.6-2.5-4.9c-1.5-1.5-3.5-2.5-5.6-2.8c-0.2,0.2-0.4,0.4-0.5,0.7
		c4.3,0.6,7.8,4.4,7.5,9.3L67.2,197c-0.5,6.7,6.5,11.5,12.5,8.4l9-4.6c0.7-0.3,1.3-0.8,1.8-1.2c1.6-1.5,2.6-3.5,2.8-5.7l7.8-98.7
		c0.2-3-1-5.5-2.9-7.2c-0.3,0.3-0.5,0.6-0.8,0.9C99.2,90.4,100,92.7,99.7,94.9z"/>
	<path class="st2" d="M99.7,94.9l-2.5,19.2c-3.5,25.5-6.7,51.1-8.7,77l-0.1,2.4c-0.1,0.5-0.1,0.7-0.2,1c-0.2,0.6-0.6,1.1-1.1,1.6
		c-0.1,0.2-2,1.1-3.4,1.9l-4.3,2.2l-2,1c-0.3,0.1-0.7,0.3-1,0.4c-0.7,0.2-1.4,0.1-2.1-0.1c-1.4-0.5-2.5-1.8-2.7-3.4l0.6-18.7
		l0.5-19.3l0.5-19.3l0.1-2.4c0-0.9,0-1.9-0.2-2.8c-0.4-1.9-1.3-3.6-2.5-4.9c-1.5-1.5-3.5-2.5-5.6-2.8c-0.2,0.2-0.4,0.4-0.5,0.7
		c4.3,0.6,7.8,4.4,7.5,9.3L67.2,197c-0.5,6.7,6.5,11.5,12.5,8.4l9-4.6c0.7-0.3,1.3-0.8,1.8-1.2c1.6-1.5,2.6-3.5,2.8-5.7l7.8-98.7
		c0.2-3-1-5.5-2.9-7.2c-0.3,0.3-0.5,0.6-0.8,0.9C99.2,90.4,100,92.7,99.7,94.9z"/>
	<path class="st2" d="M111.5,88.1l13.1,2.5c1.1,0.2,1.6,1.6,0.8,2.5l-7.7,8.4c-1.3,1.3,0.7,3.4,2.1,2.1l16.1-14.4
		c0.9-0.8,0.4-2.3-0.7-2.5l-12.8-2.3c-1-0.1-1.6-1.4-0.9-2.3l6.4-8.6c1-1.5-0.9-3.2-2.2-2l-14.9,14.2
		C109.9,86.4,110.3,87.9,111.5,88.1z"/>
	<path class="st2" d="M131.7,105l4.1,3.1c0.7,0.6,0.5,1.7-0.3,2l-12.1,4.7c-0.4,0.1-0.1,0.7,0.2,0.6l17.4-4.8c0.9-0.2,1.1-1.4,0.4-2
		l-4.1-3.1c-0.7-0.5-0.6-1.6,0.1-1.9l8.7-4.4c0.4-0.2,0.1-0.7-0.1-0.5l-14,4.3C131.2,103.2,130.9,104.4,131.7,105z"/>
	<path class="st2" d="M131.8,171.5c0,2.8-0.1,5.3-0.1,8l-0.2,15.7l-0.1,3.9l-0.1,1.9v1c0,0.3,0.1,0.4,0.1,0.6c0.1,1.4,1,2.5,2,3.2
		c1.1,0.7,2.4,0.9,3.5,0.4c0.1,0,0.3-0.1,0.4-0.1s0.2-0.1,0.6-0.3l1.7-0.9l3.5-1.8l3.4-1.7c0.4-0.2,0.9-0.6,1.2-1
		c0.3-0.4,0.5-0.9,0.7-1.4c0-0.1,0.1-0.2,0.1-0.4l0.1-0.9l0.1-1.9c1.6-20.8,4.4-41.5,7.5-62.2l0.6-3.9c0.1-0.7,0.1-1.1,0.1-1.6
		s0-1-0.1-1.5c-0.4-1.9-1.8-3.8-3.8-4.7c-1.5-0.7-3.1-0.8-4.7-0.5c-1.6,2.7-3.2,5.5-4.8,8.3c0.8-0.3,1.7-0.4,2.6-0.3
		c1.5,0.1,2.8,0.7,4,1.9c1.1,1.1,1.6,2.6,1.5,4.6c-0.1,1.9-0.9,3.4-2.2,4.3c-1.3,0.9-2.7,1.3-4.2,1.1s-2.8-0.7-4-1.8
		c-0.8-0.7-1.3-1.7-1.5-2.9c-4.7,8.6-9.1,17.4-13.5,26.2c0.4,0.2,0.7,0.4,1.1,0.7C130,165.1,131.8,168.2,131.8,171.5z M139.8,168
		c-1,11.4-1.9,22.8-2.8,34.3c-0.2,3.6-5.8,3.1-5.5-0.4c1-11.4,1.9-22.8,2.8-34.3C134.5,163.9,140.1,164.4,139.8,168z"/>
	<path class="st2" d="M131.8,171.5c0,2.8-0.1,5.3-0.1,8l-0.2,15.7l-0.1,3.9l-0.1,1.9v1c0,0.3,0.1,0.4,0.1,0.6c0.1,1.4,1,2.5,2,3.2
		c1.1,0.7,2.4,0.9,3.5,0.4c0.1,0,0.3-0.1,0.4-0.1s0.2-0.1,0.6-0.3l1.7-0.9l3.5-1.8l3.4-1.7c0.4-0.2,0.9-0.6,1.2-1
		c0.3-0.4,0.5-0.9,0.7-1.4c0-0.1,0.1-0.2,0.1-0.4l0.1-0.9l0.1-1.9c1.6-20.8,4.4-41.5,7.5-62.2l0.6-3.9c0.1-0.7,0.1-1.1,0.1-1.6
		s0-1-0.1-1.5c-0.4-1.9-1.8-3.8-3.8-4.7c-1.5-0.7-3.1-0.8-4.7-0.5c-1.6,2.7-3.2,5.5-4.8,8.3c0.8-0.3,1.7-0.4,2.6-0.3
		c1.5,0.1,2.8,0.7,4,1.9c1.1,1.1,1.6,2.6,1.5,4.6c-0.1,1.9-0.9,3.4-2.2,4.3c-1.3,0.9-2.7,1.3-4.2,1.1s-2.8-0.7-4-1.8
		c-0.8-0.7-1.3-1.7-1.5-2.9c-4.7,8.6-9.1,17.4-13.5,26.2c0.4,0.2,0.7,0.4,1.1,0.7C130,165.1,131.8,168.2,131.8,171.5z M139.8,168
		c-1,11.4-1.9,22.8-2.8,34.3c-0.2,3.6-5.8,3.1-5.5-0.4c1-11.4,1.9-22.8,2.8-34.3C134.5,163.9,140.1,164.4,139.8,168z"/>
	<path class="st2" d="M148.7,206.1l-9,4.3c-6,2.8-12.8-1.9-12.3-8.5l2.4-29.9c0.3-3.4-1.4-6.3-3.9-7.9c-0.1,0.3-0.3,0.6-0.4,0.8
		c2.7,1.6,4.5,4.6,4.2,8.1l-2.4,29.9c-0.5,6.6,6.3,11.3,12.3,8.5l9-4.3c2.7-1.3,4.6-4,4.9-7C152.9,202.7,151.2,205,148.7,206.1z"/>
	<path class="st2" d="M148.7,206.1l-9,4.3c-6,2.8-12.8-1.9-12.3-8.5l2.4-29.9c0.3-3.4-1.4-6.3-3.9-7.9c-0.1,0.3-0.3,0.6-0.4,0.8
		c2.7,1.6,4.5,4.6,4.2,8.1l-2.4,29.9c-0.5,6.6,6.3,11.3,12.3,8.5l9-4.3c2.7-1.3,4.6-4,4.9-7C152.9,202.7,151.2,205,148.7,206.1z"/>
	<path class="st2" d="M159,130.3c0.5-6.1-4.9-10.5-10.4-9.3c0,0.1-0.1,0.1-0.1,0.2c1.6-0.4,3.2-0.2,4.7,0.5c2,0.9,3.4,2.8,3.8,4.7
		c0.1,0.5,0.1,1,0.1,1.5s0,0.9-0.1,1.6l-0.6,3.9c-3.1,20.7-5.9,41.4-7.5,62.2l-0.1,1.9l-0.1,0.9c0,0.1-0.1,0.2-0.1,0.4
		c-0.1,0.5-0.4,1-0.7,1.4c-0.3,0.4-0.7,0.8-1.2,1l-3.4,1.7l-3.5,1.8l-1.7,0.9c-0.4,0.2-0.4,0.2-0.6,0.3s-0.3,0.1-0.4,0.1
		c-1.1,0.4-2.4,0.2-3.5-0.4c-1-0.7-1.9-1.8-2-3.2c0-0.2-0.1-0.3-0.1-0.6v-1l0.1-1.9l0.1-3.9l0.2-15.7c0-2.7,0.1-5.2,0.1-8
		c-0.1-3.3-1.8-6.3-4.3-8.1c-0.3-0.3-0.7-0.5-1.1-0.7c-0.2,0.5-0.4,0.9-0.7,1.4c2.5,1.6,4.2,4.5,3.9,7.9l-2.4,29.9
		c-0.5,6.6,6.3,11.3,12.3,8.5l9-4.3c2.5-1.1,4.2-3.3,4.8-5.9c0,0,0-0.1,0-0.1L159,130.3z"/>
	<path class="st2" d="M159,130.3c0.5-6.1-4.9-10.5-10.4-9.3c0,0.1-0.1,0.1-0.1,0.2c1.6-0.4,3.2-0.2,4.7,0.5c2,0.9,3.4,2.8,3.8,4.7
		c0.1,0.5,0.1,1,0.1,1.5s0,0.9-0.1,1.6l-0.6,3.9c-3.1,20.7-5.9,41.4-7.5,62.2l-0.1,1.9l-0.1,0.9c0,0.1-0.1,0.2-0.1,0.4
		c-0.1,0.5-0.4,1-0.7,1.4c-0.3,0.4-0.7,0.8-1.2,1l-3.4,1.7l-3.5,1.8l-1.7,0.9c-0.4,0.2-0.4,0.2-0.6,0.3s-0.3,0.1-0.4,0.1
		c-1.1,0.4-2.4,0.2-3.5-0.4c-1-0.7-1.9-1.8-2-3.2c0-0.2-0.1-0.3-0.1-0.6v-1l0.1-1.9l0.1-3.9l0.2-15.7c0-2.7,0.1-5.2,0.1-8
		c-0.1-3.3-1.8-6.3-4.3-8.1c-0.3-0.3-0.7-0.5-1.1-0.7c-0.2,0.5-0.4,0.9-0.7,1.4c2.5,1.6,4.2,4.5,3.9,7.9l-2.4,29.9
		c-0.5,6.6,6.3,11.3,12.3,8.5l9-4.3c2.5-1.1,4.2-3.3,4.8-5.9c0,0,0-0.1,0-0.1L159,130.3z"/>
	<path class="st2" d="M159,130.3c0.5-6.1-4.9-10.5-10.4-9.3c0,0.1-0.1,0.1-0.1,0.2c1.6-0.4,3.2-0.2,4.7,0.5c2,0.9,3.4,2.8,3.8,4.7
		c0.1,0.5,0.1,1,0.1,1.5s0,0.9-0.1,1.6l-0.6,3.9c-3.1,20.7-5.9,41.4-7.5,62.2l-0.1,1.9l-0.1,0.9c0,0.1-0.1,0.2-0.1,0.4
		c-0.1,0.5-0.4,1-0.7,1.4c-0.3,0.4-0.7,0.8-1.2,1l-3.4,1.7l-3.5,1.8l-1.7,0.9c-0.4,0.2-0.4,0.2-0.6,0.3s-0.3,0.1-0.4,0.1
		c-1.1,0.4-2.4,0.2-3.5-0.4c-1-0.7-1.9-1.8-2-3.2c0-0.2-0.1-0.3-0.1-0.6v-1l0.1-1.9l0.1-3.9l0.2-15.7c0-2.7,0.1-5.2,0.1-8
		c-0.1-3.3-1.8-6.3-4.3-8.1c-0.3-0.3-0.7-0.5-1.1-0.7c-0.2,0.5-0.4,0.9-0.7,1.4c2.5,1.6,4.2,4.5,3.9,7.9l-2.4,29.9
		c-0.5,6.6,6.3,11.3,12.3,8.5l9-4.3c2.5-1.1,4.2-3.3,4.8-5.9c0,0,0-0.1,0-0.1L159,130.3z"/>
	<path class="st2" d="M183.4,113.8l-0.5,19.5l-0.5,19.5l-0.7,18.9c0.1,1.6,1.3,2.9,2.7,3.4c0.7,0.2,1.4,0.3,2.1,0.1
		c0.4-0.1,0.5-0.1,1.1-0.4l2.2-1l4.4-2l2.1-1c0.3-0.1,0.6-0.3,0.8-0.5c0.5-0.4,0.9-1,1-1.6c0.1-0.1,0.1-0.3,0.1-0.4l0.1-0.8l0.1-2.4
		c2-25.8,5.2-51.7,8.7-77.4l2.5-19.3c0.1-0.5,0.1-1,0.1-1.5c-5.6,8-22.5,31.9-27.5,38.8c0.5,1,0.9,2.1,1.1,3.2
		C183.7,110.6,183.4,112.1,183.4,113.8z M196.6,111.8c0.7-0.5,1.6-0.7,2.5-0.7c0.9,0.1,1.6,0.4,2.3,1c0.7,0.7,1,1.6,0.9,2.7
		c-0.1,1.1-0.5,2-1.3,2.5c-0.7,0.5-1.6,0.7-2.5,0.7c-0.9-0.1-1.6-0.4-2.3-1c-0.7-0.7-1-1.6-0.9-2.7
		C195.4,113.2,195.8,112.4,196.6,111.8z M194.8,129.5c0.3-3.6,5.8-3.1,5.5,0.4c-1,11.4-1.9,22.8-2.8,34.3c-0.2,3.6-5.8,3.1-5.5-0.4
		C193,152.4,193.9,140.9,194.8,129.5z"/>
	<path class="st2" d="M183.4,113.8l-0.5,19.5l-0.5,19.5l-0.7,18.9c0.1,1.6,1.3,2.9,2.7,3.4c0.7,0.2,1.4,0.3,2.1,0.1
		c0.4-0.1,0.5-0.1,1.1-0.4l2.2-1l4.4-2l2.1-1c0.3-0.1,0.6-0.3,0.8-0.5c0.5-0.4,0.9-1,1-1.6c0.1-0.1,0.1-0.3,0.1-0.4l0.1-0.8l0.1-2.4
		c2-25.8,5.2-51.7,8.7-77.4l2.5-19.3c0.1-0.5,0.1-1,0.1-1.5c-5.6,8-22.5,31.9-27.5,38.8c0.5,1,0.9,2.1,1.1,3.2
		C183.7,110.6,183.4,112.1,183.4,113.8z M196.6,111.8c0.7-0.5,1.6-0.7,2.5-0.7c0.9,0.1,1.6,0.4,2.3,1c0.7,0.7,1,1.6,0.9,2.7
		c-0.1,1.1-0.5,2-1.3,2.5c-0.7,0.5-1.6,0.7-2.5,0.7c-0.9-0.1-1.6-0.4-2.3-1c-0.7-0.7-1-1.6-0.9-2.7
		C195.4,113.2,195.8,112.4,196.6,111.8z M194.8,129.5c0.3-3.6,5.8-3.1,5.5,0.4c-1,11.4-1.9,22.8-2.8,34.3c-0.2,3.6-5.8,3.1-5.5-0.4
		C193,152.4,193.9,140.9,194.8,129.5z"/>
	<path class="st2" d="M182,110.6c0.1-1.4-0.1-2.7-0.5-3.8C181.9,107.9,182.1,109.1,182,110.6l-4.8,60.1c0,0.2,0,0.4,0,0.7
		c0-0.2,0-0.4,0-0.6L182,110.6z"/>
	<path class="st2" d="M182,110.6c0.1-1.4-0.1-2.7-0.5-3.8C181.9,107.9,182.1,109.1,182,110.6l-4.8,60.1c0,0.2,0,0.4,0,0.7
		c0-0.2,0-0.4,0-0.6L182,110.6z"/>
	<path class="st2" d="M211.1,64.6C211.1,64.6,211.1,64.7,211.1,64.6c0.2,0.6,0.3,1.2,0.3,1.8C211.4,65.8,211.3,65.2,211.1,64.6z"/>
	<path class="st2" d="M211.1,64.6C211.1,64.6,211.1,64.7,211.1,64.6c0.2,0.6,0.3,1.2,0.3,1.8C211.4,65.8,211.3,65.2,211.1,64.6z"/>
	<path class="st2" d="M211.5,66.8c0,0.1,0,0.2,0,0.2C211.5,66.9,211.5,66.9,211.5,66.8z"/>
	<path class="st2" d="M211.5,66.8c0,0.1,0,0.2,0,0.2C211.5,66.9,211.5,66.9,211.5,66.8z"/>
	<path class="st2" d="M209.7,68.1l-2.5,19.3c-3.5,25.8-6.7,51.6-8.7,77.4l-0.1,2.4l-0.1,0.8c0,0.1,0,0.3-0.1,0.4
		c-0.1,0.6-0.5,1.2-1,1.6c-0.2,0.2-0.5,0.4-0.8,0.5l-2.1,1l-4.4,2l-2.2,1c-0.6,0.3-0.7,0.4-1.1,0.4c-0.7,0.1-1.4,0.1-2.1-0.1
		c-1.4-0.4-2.5-1.8-2.7-3.4l0.7-18.9l0.5-19.5l0.5-19.5c0-1.6,0.3-3.2,0-5.2c-0.1-1.1-0.5-2.2-1.1-3.2c-0.4,0.5-0.7,0.9-0.9,1.2
		c0,0,0,0.1,0,0.2c0.4,1.2,0.7,2.4,0.5,3.8l-4.8,60.2c0,0.2,0,0.4,0,0.6c0,6.2,6.4,10.5,12.1,7.9l9-4c2.9-1.3,4.9-4,5.2-7.2l8-100.3
		c0-0.3,0-0.5,0-0.8c0-0.1,0-0.2,0-0.2c0-0.1,0-0.2,0-0.3c0-0.6-0.2-1.2-0.3-1.8c-0.3,0.4-0.8,1.1-1.3,1.9
		C209.8,67.1,209.8,67.6,209.7,68.1z"/>
	<path class="st2" d="M209.7,68.1l-2.5,19.3c-3.5,25.8-6.7,51.6-8.7,77.4l-0.1,2.4l-0.1,0.8c0,0.1,0,0.3-0.1,0.4
		c-0.1,0.6-0.5,1.2-1,1.6c-0.2,0.2-0.5,0.4-0.8,0.5l-2.1,1l-4.4,2l-2.2,1c-0.6,0.3-0.7,0.4-1.1,0.4c-0.7,0.1-1.4,0.1-2.1-0.1
		c-1.4-0.4-2.5-1.8-2.7-3.4l0.7-18.9l0.5-19.5l0.5-19.5c0-1.6,0.3-3.2,0-5.2c-0.1-1.1-0.5-2.2-1.1-3.2c-0.4,0.5-0.7,0.9-0.9,1.2
		c0,0,0,0.1,0,0.2c0.4,1.2,0.7,2.4,0.5,3.8l-4.8,60.2c0,0.2,0,0.4,0,0.6c0,6.2,6.4,10.5,12.1,7.9l9-4c2.9-1.3,4.9-4,5.2-7.2l8-100.3
		c0-0.3,0-0.5,0-0.8c0-0.1,0-0.2,0-0.2c0-0.1,0-0.2,0-0.3c0-0.6-0.2-1.2-0.3-1.8c-0.3,0.4-0.8,1.1-1.3,1.9
		C209.8,67.1,209.8,67.6,209.7,68.1z"/>
	<path class="st2" d="M209.7,68.1l-2.5,19.3c-3.5,25.8-6.7,51.6-8.7,77.4l-0.1,2.4l-0.1,0.8c0,0.1,0,0.3-0.1,0.4
		c-0.1,0.6-0.5,1.2-1,1.6c-0.2,0.2-0.5,0.4-0.8,0.5l-2.1,1l-4.4,2l-2.2,1c-0.6,0.3-0.7,0.4-1.1,0.4c-0.7,0.1-1.4,0.1-2.1-0.1
		c-1.4-0.4-2.5-1.8-2.7-3.4l0.7-18.9l0.5-19.5l0.5-19.5c0-1.6,0.3-3.2,0-5.2c-0.1-1.1-0.5-2.2-1.1-3.2c-0.4,0.5-0.7,0.9-0.9,1.2
		c0,0,0,0.1,0,0.2c0.4,1.2,0.7,2.4,0.5,3.8l-4.8,60.2c0,0.2,0,0.4,0,0.6c0,6.2,6.4,10.5,12.1,7.9l9-4c2.9-1.3,4.9-4,5.2-7.2l8-100.3
		c0-0.3,0-0.5,0-0.8c0-0.1,0-0.2,0-0.2c0-0.1,0-0.2,0-0.3c0-0.6-0.2-1.2-0.3-1.8c-0.3,0.4-0.8,1.1-1.3,1.9
		C209.8,67.1,209.8,67.6,209.7,68.1z"/>
</g>
</svg>
